<svg xmlns="http://www.w3.org/2000/svg" width="305" height="90" fill="none"><path fill="#000" d="M295.695 14.004V8.702h-5.013v-3.4h5.013V0h3.689v5.302h5.014v3.4h-5.014v5.302h-3.689ZM75.598 31.948h10.688v19.35l-1.35 7.088c0-5.1.487-9.638 1.462-13.613.975-3.975 2.475-7.087 4.5-9.338 2.1-2.325 4.725-3.487 7.876-3.487h10.35v9.675h-9.225c-3.15 0-5.738.788-7.763 2.363-2.025 1.575-3.525 3.975-4.5 7.2-.9 3.15-1.35 7.2-1.35 12.15V88.2H75.597V31.948ZM129.017 90c-3.45 0-6.637-.713-9.563-2.138-2.85-1.425-5.137-3.45-6.862-6.075-1.725-2.7-2.588-5.813-2.588-9.338 0-4.65 1.313-8.287 3.938-10.913 2.7-2.7 6.037-4.575 10.013-5.625 4.05-1.05 8.55-1.725 13.5-2.025 4.2-.15 7.05-.9 8.55-2.25 1.5-1.425 1.988-3.188 1.463-5.288-.45-2.025-1.688-3.6-3.713-4.725-1.95-1.2-4.65-1.8-8.1-1.8-4.275 0-7.65.938-10.125 2.813-2.4 1.8-3.601 4.5-3.601 8.1l-10.462-1.125c0-3.675 1.012-6.975 3.037-9.9 2.025-3 4.875-5.325 8.551-6.976 3.75-1.725 7.95-2.587 12.6-2.587 7.05 0 12.6 1.612 16.651 4.838 4.125 3.225 6.187 8.625 6.187 16.2V88.2h-10.688V72.45l1.125-4.5c0 4.05-.787 7.762-2.362 11.137-1.5 3.375-3.75 6.038-6.75 7.988-3 1.95-6.601 2.925-10.801 2.925Zm2.25-9.675c3 0 5.738-.713 8.213-2.138 2.55-1.425 4.575-3.563 6.075-6.413 1.5-2.925 2.25-6.562 2.25-10.913v-8.1l1.463-1.462c0 3-.638 5.325-1.913 6.975-1.2 1.575-2.737 2.662-4.612 3.262-1.875.6-4.125 1.05-6.751 1.35h-.675c-4.275.225-7.725 1.013-10.35 2.363-2.625 1.275-3.938 3.563-3.938 6.863 0 1.65.375 3.075 1.125 4.275.826 1.2 2.026 2.175 3.601 2.925 1.575.675 3.412 1.013 5.512 1.013Zm34.029-48.377h10.688v19.35l-1.35 7.088c0-5.1.487-9.638 1.462-13.613.975-3.975 2.475-7.087 4.501-9.338 2.1-2.325 4.725-3.487 7.875-3.487h10.35v9.675h-9.225c-3.15 0-5.738.788-7.763 2.363-2.025 1.575-3.525 3.975-4.5 7.2-.9 3.15-1.35 7.2-1.35 12.15V88.2h-10.688V31.948ZM218.716 90c-3.451 0-6.638-.713-9.563-2.138-2.85-1.425-5.138-3.45-6.863-6.075-1.725-2.7-2.588-5.813-2.588-9.338 0-4.65 1.313-8.287 3.938-10.913 2.7-2.7 6.038-4.575 10.013-5.625 4.05-1.05 8.55-1.725 13.5-2.025 4.2-.15 7.051-.9 8.551-2.25 1.5-1.425 1.987-3.188 1.462-5.288-.45-2.025-1.687-3.6-3.712-4.725-1.951-1.2-4.651-1.8-8.101-1.8-4.275 0-7.65.938-10.125 2.813-2.4 1.8-3.6 4.5-3.6 8.1l-10.463-1.125c0-3.675 1.012-6.975 3.038-9.9 2.025-3 4.875-5.325 8.55-6.976 3.75-1.725 7.95-2.587 12.6-2.587 7.051 0 12.601 1.612 16.651 4.838 4.125 3.225 6.188 8.625 6.188 16.2V88.2h-10.688V72.45l1.125-4.5c0 4.05-.788 7.762-2.363 11.137-1.5 3.375-3.75 6.038-6.75 7.988-3 1.95-6.6 2.925-10.8 2.925Zm2.25-9.675c3 0 5.737-.713 8.212-2.138 2.551-1.425 4.576-3.563 6.076-6.413 1.5-2.925 2.25-6.562 2.25-10.913v-8.1l1.462-1.462c0 3-.637 5.325-1.912 6.975a9.197 9.197 0 0 1-4.613 3.262c-1.875.6-4.125 1.05-6.75 1.35h-.675c-4.275.225-7.726 1.013-10.351 2.363-2.625 1.275-3.937 3.563-3.937 6.863 0 1.65.375 3.075 1.125 4.275.825 1.2 2.025 2.175 3.6 2.925 1.575.675 3.413 1.013 5.513 1.013Zm59.01 7.875c-5.476 0-9.676-1.388-12.601-4.163-2.85-2.85-4.275-6.975-4.275-12.375V13.947h10.688v57.827c0 2.25.562 3.938 1.687 5.063 1.126 1.125 2.813 1.688 5.063 1.688h10.125V88.2h-10.687ZM250.95 31.948h39.713v9.675H250.95v-9.675ZM26.776 9.445h16.088L69.64 88.198H58.502L32.514 11.92h4.725L11.138 88.198H0L26.776 9.445Z"/><path fill="#000" d="M54.42 65.037V53.695l-9.755-6.402-9.754 6.403-9.755-6.403-9.754 6.403v11.341l9.754-6.403 9.755 6.403 9.754-6.403 9.755 6.403Z"/></svg>