<svg xmlns="http://www.w3.org/2000/svg" width="290" height="90" fill="none"><path fill="#323232" d="M22.152 18.443c-2.904 0-5.31-.861-7.218-2.582-1.825-1.804-2.738-4.017-2.738-6.64 0-2.623.912-4.795 2.738-6.516C16.842.902 19.248 0 22.152 0c2.903 0 5.268.902 7.093 2.705 1.908 1.721 2.862 3.893 2.862 6.516s-.954 4.836-2.862 6.64c-1.825 1.721-4.19 2.582-7.093 2.582ZM0 88.525 10.827 27.54h15.93L15.928 88.525H0Zm67.434 0c-6.472 0-11.657-1.558-15.556-4.672-3.9-3.115-5.85-8.648-5.85-16.599V40.697H35.452V27.54H46.03l1.866-16.352h14.063V27.54h16.676v13.156H61.958v26.68c0 2.95.622 5 1.867 6.148 1.327 1.065 3.567 1.598 6.72 1.598h7.715v13.402H67.434ZM113.591 90c-5.31 0-9.665-.82-13.067-2.459-3.402-1.721-5.932-3.975-7.591-6.762-1.66-2.787-2.49-5.861-2.49-9.222 0-5.655 2.24-10.245 6.72-13.77 4.481-3.525 11.201-5.287 20.161-5.287h15.681v-1.475c0-4.18-1.203-7.255-3.609-9.222-2.406-1.967-5.393-2.95-8.96-2.95-3.236 0-6.057.778-8.463 2.335-2.406 1.476-3.899 3.69-4.48 6.64H91.937c.415-4.426 1.908-8.279 4.48-11.558 2.655-3.278 6.057-5.778 10.205-7.5 4.148-1.803 8.794-2.704 13.938-2.704 8.794 0 15.722 2.172 20.783 6.516 5.061 4.344 7.591 10.492 7.591 18.443v37.5h-13.565l-1.493-9.837c-1.825 3.28-4.397 5.984-7.716 8.115-3.235 2.131-7.425 3.197-12.569 3.197Zm3.609-12.295c4.563 0 8.089-1.475 10.578-4.426 2.572-2.951 4.19-6.599 4.853-10.943h-13.564c-4.232 0-7.26.779-9.085 2.336-1.825 1.475-2.738 3.32-2.738 5.533 0 2.377.913 4.221 2.738 5.533 1.825 1.311 4.231 1.967 7.218 1.967Zm46.935 10.82V0h15.929v88.525h-15.929Zm40.793-70.451c-2.904 0-5.31-.86-7.218-2.582-1.826-1.722-2.738-3.894-2.738-6.517s.912-4.754 2.738-6.393C199.618.861 202.024 0 204.928 0c2.903 0 5.268.86 7.093 2.582 1.908 1.64 2.862 3.77 2.862 6.393 0 2.623-.954 4.796-2.862 6.517-1.825 1.721-4.19 2.582-7.093 2.582Zm-7.965 70.45V27.542h15.929v60.984h-15.929ZM259.759 90c-6.305 0-11.864-1.353-16.676-4.057-4.812-2.705-8.628-6.476-11.449-11.312-2.738-4.836-4.107-10.369-4.107-16.598 0-6.23 1.369-11.763 4.107-16.599 2.821-4.836 6.637-8.606 11.449-11.311s10.371-4.057 16.676-4.057c7.882 0 14.519 2.049 19.912 6.147 5.393 4.017 8.836 9.59 10.329 16.721h-16.8c-.83-2.95-2.489-5.245-4.978-6.885-2.406-1.721-5.269-2.582-8.587-2.582-4.397 0-8.131 1.64-11.2 4.918-3.07 3.279-4.605 7.828-4.605 13.648 0 5.82 1.535 10.369 4.605 13.647 3.069 3.279 6.803 4.918 11.2 4.918 3.318 0 6.181-.82 8.587-2.459 2.489-1.639 4.148-3.975 4.978-7.008H290c-1.493 6.885-4.936 12.418-10.329 16.599-5.393 4.18-12.03 6.27-19.912 6.27Z"/></svg>