<svg xmlns="http://www.w3.org/2000/svg" width="523" height="90" fill="none"><path fill="#000" d="M168.83 12.123v74.669h-9.051v-32.47h-40.502v32.47h-9.05V12.124h9.05v33.374h40.502V12.124h9.051Zm35.412 16.971c12.897 0 23.419 6.109 23.419 19.232v39.371l-9.051.113v-8.372c-4.186 5.318-12.897 8.485-20.138 8.485-11.766 0-20.364-4.978-20.364-15.16 0-7.919 5.657-13.915 14.481-16.63 6.562-2.037 13.689-2.942 26.021-3.168v-3.507c0-7.467-5.883-12.445-14.368-12.445-8.598 0-15.386 3.62-18.441 10.748l-6.675-4.865c2.942-8.372 11.879-13.802 25.116-13.802Zm-17.083 43.67c0 4.751 5.317 7.58 11.766 7.58 9.05 0 19.685-5.092 19.685-12.558v-7.58c-11.54.452-17.875 1.357-23.193 2.828-4.751 1.357-8.258 4.752-8.258 9.73Zm117.29-43.67c10.861 0 21.608 6.561 21.608 21.495v36.203h-9.05V51.494c0-10.295-5.883-14.481-13.35-14.481-8.825 0-16.744 6.675-16.744 18.78v30.999h-9.051V51.494c0-10.295-5.883-14.481-13.35-14.481-7.466 0-16.743 5.544-16.743 19.572v30.207h-9.051V30.225h7.919l.566 8.824c4.073-6.9 11.087-9.955 18.101-9.955 7.92 0 15.726 3.507 19.459 11.087 3.508-7.693 12.558-11.087 19.686-11.087Zm36.833-9.277c-3.734 0-6.788-3.055-6.788-6.788 0-3.734 3.054-6.788 6.788-6.788 3.733 0 6.788 3.054 6.788 6.788 0 3.733-3.055 6.788-6.788 6.788Zm-4.526 66.975V30.225h9.051v56.567h-9.051Zm20.365-82.588h8.937v82.588h-8.937V4.204Zm32.128 66.976c0 5.543 3.168 8.485 8.146 8.485 4.072 0 7.24-2.15 10.182-3.847l2.941 7.014c-3.507 3.168-8.372 5.091-14.594 5.091-8.372 0-15.726-4.186-15.726-15.16V38.031h-11.313v-7.806h11.313V14.16h9.051v16.065h20.93v7.806h-20.93V71.18Zm21.239-12.445c0-16.518 13.237-29.755 29.415-29.755 16.178 0 29.415 13.237 29.415 29.755 0 16.404-13.237 28.962-29.415 28.962-16.178 0-29.415-12.558-29.415-28.962Zm9.051-.227c0 11.653 8.937 20.478 20.364 20.478 11.427 0 20.364-8.825 20.364-20.478 0-11.652-8.937-21.156-20.364-21.156-11.427 0-20.364 9.504-20.364 21.157Zm81.239-29.414c12.105 0 22.061 6.9 22.061 21.495v36.203h-9.051V53.757c0-12.558-6.109-16.744-13.915-16.744-8.259 0-17.536 5.204-17.536 19.685v30.094h-9.051V30.225h7.92l.565 8.824c3.96-7.127 11.201-9.955 19.007-9.955Zm-460.656.415V0h10.415v29.509H40.122Z"/><path fill="#000" d="M37.132 49.197 0 34.344l3.868-9.67 41.461 16.584 41.462-16.584 3.868 9.67-36.95 14.78 26.966 34.457L72.473 90 45.448 55.468l-25.44 34.418-8.375-6.19 25.499-34.5Z"/></svg>