<svg xmlns="http://www.w3.org/2000/svg" width="398" height="90" fill="none"><path fill="#050601" d="M30.084 88.49 7.804 34.993c-1.175-2.853-3.189-4.741-6.042-5.664L0 28.825v-1.259h32.601v1.26l-2.265.503c-3.273.839-4.28 3.02-3.021 6.545L40.53 70.993l12.336-34.867c.672-1.678.84-3.063.504-4.154-.336-1.09-1.343-1.888-3.021-2.392l-3.147-.755v-1.259h18.251v1.26l-3.65.88c-1.594.42-2.853 1.05-3.776 1.888-.84.84-1.553 2.098-2.14 3.777L37.385 88.49h-7.301ZM98.17 25.678c5.455 0 10.112 1.133 13.972 3.399 3.86 2.182 6.797 5.203 8.811 9.063 2.098 3.776 3.147 8.098 3.147 12.965 0 .923-.042 1.888-.126 2.895a11.193 11.193 0 0 1-.503 2.517h-37.51c.083 9.063 1.677 15.609 4.782 19.637 3.19 3.944 7.889 5.916 14.098 5.916 4.196 0 7.595-.671 10.196-2.014 2.602-1.343 5.035-3.315 7.301-5.916l1.259 1.133c-2.602 4.615-6.084 8.224-10.448 10.825-4.28 2.601-9.441 3.902-15.483 3.902-5.957 0-11.244-1.259-15.86-3.776-4.615-2.602-8.223-6.294-10.825-11.077-2.601-4.783-3.902-10.49-3.902-17.119 0-6.881 1.51-12.713 4.532-17.496 3.02-4.868 6.88-8.56 11.58-11.077 4.783-2.518 9.776-3.777 14.979-3.777Zm-.378 2.518c-2.433 0-4.531.755-6.293 2.265-1.679 1.427-3.021 4.029-4.028 7.805-.923 3.692-1.427 8.937-1.51 15.734h21.524c.839-9.147.503-15.734-1.007-19.762-1.511-4.028-4.406-6.042-8.686-6.042Zm33.84 59.916v-1.259l1.762-.503c2.937-.84 4.406-2.895 4.406-6.168V40.783c0-1.846-.294-3.189-.881-4.028-.588-.923-1.721-1.552-3.399-1.888l-1.888-.503v-1.26l21.524-7.3 1.259 1.259 1.007 7.552c2.937-2.601 6.252-4.74 9.944-6.42 3.692-1.678 7.343-2.517 10.951-2.517 5.539 0 9.776 1.51 12.713 4.532 3.021 3.02 4.532 7.636 4.532 13.846v36.252c0 3.272 1.594 5.328 4.783 6.167l1.133.378v1.259h-29.706v-1.259l1.636-.503c2.937-.923 4.406-2.98 4.406-6.168V40.028c0-5.37-2.686-8.056-8.056-8.056-3.693 0-7.721 1.846-12.084 5.538v42.798c0 3.272 1.468 5.328 4.405 6.167l1.133.378v1.259h-29.58Zm89.134-68.979c-2.853 0-5.286-.881-7.3-2.643-1.93-1.847-2.895-4.154-2.895-6.924 0-2.853.965-5.16 2.895-6.923C215.48.881 217.913 0 220.766 0c2.854 0 5.245.881 7.175 2.643 1.93 1.763 2.895 4.07 2.895 6.923 0 2.77-.965 5.077-2.895 6.923-1.93 1.763-4.321 2.644-7.175 2.644Zm-14.853 68.979v-1.259l1.763-.503c1.678-.504 2.811-1.26 3.398-2.266.671-1.007 1.007-2.35 1.007-4.028V40.657c0-1.762-.336-3.063-1.007-3.902-.587-.923-1.72-1.552-3.398-1.888l-1.763-.377v-1.26l23.035-7.426 1.259 1.259-.378 17.874v35.245c0 1.678.294 3.02.882 4.028.671 1.007 1.804 1.762 3.398 2.266l1.259.377v1.259h-29.455ZM273.416 90c-5.706 0-10.909-1.217-15.608-3.65-4.616-2.518-8.308-6.126-11.077-10.825-2.685-4.784-4.028-10.616-4.028-17.497 0-6.797 1.469-12.587 4.406-17.37 3.021-4.868 7.007-8.56 11.958-11.078 5.035-2.601 10.531-3.902 16.489-3.902 4.867 0 8.979.797 12.336 2.392 3.356 1.594 5.916 3.692 7.678 6.294 1.762 2.517 2.643 5.16 2.643 7.93 0 2.35-.713 4.196-2.139 5.538-1.427 1.259-3.273 1.888-5.539 1.888-2.433 0-4.405-.88-5.916-2.643-1.51-1.762-2.392-4.07-2.643-6.923-.084-1.846-.042-3.399.126-4.658a16.255 16.255 0 0 0 0-4.028c-.336-1.426-.882-2.35-1.637-2.769-.671-.503-1.636-.755-2.895-.755-5.119 0-9.105 2.224-11.958 6.671-2.769 4.448-4.154 11.539-4.154 21.273 0 8.476 1.553 14.98 4.658 19.51 3.188 4.448 8.056 6.672 14.601 6.672 3.944 0 7.133-.713 9.566-2.14 2.434-1.427 4.784-3.566 7.049-6.42l1.259 1.007c-2.098 4.952-5.329 8.77-9.692 11.455-4.364 2.685-9.525 4.028-15.483 4.028Zm63.099-64.322c5.454 0 10.111 1.133 13.972 3.399 3.86 2.182 6.797 5.203 8.811 9.063 2.098 3.776 3.147 8.098 3.147 12.965 0 .923-.042 1.888-.126 2.895a11.137 11.137 0 0 1-.504 2.517h-37.51c.084 9.063 1.678 15.609 4.783 19.637 3.189 3.944 7.888 5.916 14.098 5.916 4.196 0 7.594-.671 10.196-2.014 2.601-1.343 5.035-3.315 7.3-5.916l1.259 1.133c-2.601 4.615-6.084 8.224-10.447 10.825-4.28 2.601-9.441 3.902-15.483 3.902-5.958 0-11.245-1.259-15.86-3.776-4.615-2.602-8.224-6.294-10.825-11.077-2.602-4.783-3.902-10.49-3.902-17.119 0-6.881 1.51-12.713 4.531-17.496 3.021-4.868 6.881-8.56 11.581-11.077 4.783-2.518 9.776-3.777 14.979-3.777Zm-.378 2.518c-2.434 0-4.532.755-6.294 2.265-1.678 1.427-3.021 4.029-4.028 7.805-.923 3.692-1.426 8.937-1.51 15.734h21.524c.839-9.147.504-15.734-1.007-19.762-1.51-4.028-4.405-6.042-8.685-6.042ZM386.34 90c-3.021 0-5.58-1.049-7.678-3.147s-3.147-4.615-3.147-7.552c0-2.937 1.049-5.497 3.147-7.679 2.098-2.181 4.657-3.272 7.678-3.272s5.581 1.09 7.678 3.272c2.098 2.182 3.147 4.742 3.147 7.679 0 2.937-1.049 5.454-3.147 7.552-2.097 2.098-4.657 3.147-7.678 3.147Z"/></svg>